<svg width="24" height="24" fill="none" xmlns="http://www.w3.org/2000/svg"><path d="M18.802 15.024c0-1.21-.992-2.185-2.221-2.185h-.278l.912-7.298v-.039c.08-1.443-.436-2.81-1.467-3.863C14.717.585 13.368 0 11.9 0a5.26 5.26 0 0 0-3.847 1.639c-1.031 1.054-1.547 2.42-1.468 3.863v.04l.913 7.297H7.22c-1.23 0-2.221.976-2.221 2.185v1.678c0 .586.238 1.132.635 1.522v5.074c0 .39.317.702.713.702a.705.705 0 0 0 .714-.702v-4.41h1.864v3.317c0 .39.318.702.714.702a.705.705 0 0 0 .714-.702v-3.317h3.292v3.317c0 .39.317.702.714.702a.705.705 0 0 0 .714-.702v-3.317h1.864v4.41c0 .39.317.702.714.702a.705.705 0 0 0 .713-.702v-5.035c.397-.39.635-.936.635-1.522v-1.717h-.198ZM7.895 5.385c-.04-1.053.357-2.068 1.071-2.848a3.963 3.963 0 0 1 2.856-1.21c1.11 0 2.102.43 2.855 1.21.754.78 1.15 1.795 1.07 2.848l-.911 7.415H8.847l-.952-7.415Zm-.714 12.176a.809.809 0 0 1-.436-.117c-.04-.04-.08-.04-.119-.078a.81.81 0 0 1-.317-.625v-1.678c0-.468.396-.82.833-.82H16.5c.476 0 .833.391.833.82v1.678c0 .274-.119.469-.317.625-.04.039-.08.039-.119.078a.809.809 0 0 1-.436.117h-9.28Z" fill="#fff"/></svg>