<svg width="20" height="21" fill="none" xmlns="http://www.w3.org/2000/svg"><path d="M19.416 9.922H3.832v-6.33a.74.74 0 0 1 .746-.76h2.5v.957a1.446 1.446 0 0 0-1.234 1.418v1.45c0 .33.26.594.585.594h2.305a.587.587 0 0 0 .584-.593V5.207c0-.66-.454-1.22-1.071-1.385V2.239c0-.33-.26-.593-.585-.593H4.578c-1.039 0-1.883.857-1.883 1.912V9.89H.584a.587.587 0 0 0-.584.594c0 .33.26.593.584.593h.78v2.638c0 1.945 1.428 3.561 3.279 3.825l-.714 1.616a.57.57 0 0 0 .292.758.595.595 0 0 0 .227.066.578.578 0 0 0 .52-.33l.909-2.044h9.156l.909 2.044c.097.231.292.33.519.33.065 0 .162 0 .227-.066a.57.57 0 0 0 .293-.758l-.812-1.814a3.913 3.913 0 0 0 2.467-3.627v-2.638h.78a.587.587 0 0 0 .584-.593.58.58 0 0 0-.584-.56ZM8.149 6.097H6.981v-.89c0-.165.13-.297.292-.297h.584c.162 0 .292.132.292.297v.89Zm9.351 7.617c0 1.484-1.201 2.737-2.695 2.737h-9.61c-1.461 0-2.695-1.22-2.695-2.737v-2.638h15v2.638Z" fill="#45525B"/></svg>