<svg width="20" height="21" fill="none" xmlns="http://www.w3.org/2000/svg"><g clip-path="url(#a)"><path d="M18.654 14.092s0-.033 0 0v-.033l-2.71-6.006v-5.26c0-1.071-.86-1.98-1.944-1.98H5.969c-1.052 0-1.945.876-1.945 1.98v5.26l-2.71 6.006a.61.61 0 0 0-.063.228v5.941c0 .325.255.584.574.584.319 0 .574-.26.574-.584v-1.72h15.204v1.72c0 .325.256.584.574.584.319 0 .574-.26.574-.584v-5.942c-.064-.064-.064-.13-.096-.194ZM4.948 8.735h10.04l2.264 5H2.716l2.232-5Zm.223-5.942A.83.83 0 0 1 6 1.949h8a.83.83 0 0 1 .83.844v4.805H5.17V2.793ZM2.398 17.371v-2.5h15.204v2.5H2.398Z" fill="#45525B"/></g><defs><clipPath id="a"><path fill="#fff" transform="translate(0 .813)" d="M0 0h20v20H0z"/></clipPath></defs></svg>