<svg width="24" height="24" fill="none" xmlns="http://www.w3.org/2000/svg"><path d="m23.883 10.03.039-.038s0-.038.039-.077c0-.038 0-.038.039-.076v-.23C23.18 4.981 18.03 1.5 11.98 1.5 5.932 1.5.78 4.98 0 9.571v.268c0 .038 0 .038.039.076 0 .039 0 .039.039.077 0 .038.04.038.04.076l.038.039.04.038.038.038.04.038.038.039s.04.038.078.038c0 0 .04.038.078.038h2.654v10.749h-.624a.693.693 0 0 0-.703.688c0 .383.312.689.703.689h6.634c.39 0 .702-.306.702-.689a.693.693 0 0 0-.702-.688h-.586v-10.71h6.947v10.748h-.664a.693.693 0 0 0-.702.688c0 .383.312.689.702.689h6.634c.39 0 .703-.306.703-.689a.693.693 0 0 0-.703-.688h-.507V10.374H23.571c.039 0 .039 0 .078-.038.039 0 .039-.038.078-.038l.039-.038.039-.039.039-.038.039-.038v-.115ZM11.98 2.84c5.034 0 9.365 2.64 10.458 6.235H1.522C2.615 5.44 6.946 2.839 11.98 2.839Zm-4.8 18.284H4.448V10.374H7.18v10.749Zm12.41 0h-2.733V10.374h2.732v10.749Z" fill="#fff"/></svg>