<svg width="24" height="25" fill="none" xmlns="http://www.w3.org/2000/svg"><g clip-path="url(#a)"><path d="M22.645.906H1.355C.58.906 0 1.526 0 2.261v21.29c0 .775.62 1.355 1.355 1.355h11.458v-9.329H9.716v-3.6h3.097v-2.67c0-3.098 1.858-4.8 4.645-4.8.93 0 1.858.038 2.787.154v3.213h-1.858c-1.47 0-1.78.697-1.78 1.742V11.9h3.522l-.503 3.639h-3.097v9.212h6.116c.774 0 1.355-.58 1.355-1.354V2.26c-.039-.774-.658-1.355-1.355-1.355Z" fill="#fff"/></g><defs><clipPath id="a"><path fill="#fff" transform="translate(0 .906)" d="M0 0h24v24H0z"/></clipPath></defs></svg>