<svg width="24" height="25" fill="none" xmlns="http://www.w3.org/2000/svg"><g clip-path="url(#a)"><path d="M13.894.907c1.648.003 2.118.017 3.158.077 1.318.038 2.17.232 2.945.542.776.31 1.434.696 2.093 1.354.659.659 1.085 1.317 1.357 2.13.27.812.503 1.703.542 2.941.039 1.317-.039 1.742-.039 5.033v2.278c-.003 1.32-.011 1.77-.038 2.638-.04 1.316-.272 2.168-.543 2.942a5.525 5.525 0 0 1-1.356 2.129c-.66.658-1.318 1.084-2.132 1.355-.814.27-1.628.503-2.945.541-.352.01-.634.018-.922.024l-.218.004c-.369.006-.775.008-1.364.01H10.32c-1.817-.002-2.251-.014-3.305-.076-1.318-.039-2.17-.271-2.946-.542a5.533 5.533 0 0 1-2.131-1.355c-.66-.658-1.085-1.316-1.357-2.129C.31 19.99.077 19.177.04 17.861l-.02-.705-.006-.324c-.006-.362-.01-.747-.011-1.3L0 15.179v-2.893c.004-2.72.04-3.106.076-4.335C.117 6.635.31 5.784.62 5.01c.271-.812.698-1.47 1.356-2.129.66-.658 1.318-1.122 2.132-1.393.814-.271 1.628-.503 2.945-.542C7.976.918 8.423.91 9.74.907h4.155Zm.198 2.206h-4.079c-.853.002-1.36.005-1.82.013l-.209.004c-.243.005-.486.012-.776.021-1.201.04-1.821.271-2.247.426-.543.232-.93.465-1.357.89-.387.388-.659.813-.891 1.355-.155.465-.388 1.084-.426 2.246-.01.289-.016.531-.022.774l-.004.21c-.008.423-.01.887-.012 1.626v.61l-.001.23v6.188c.039 1.2.271 1.82.426 2.245.271.542.504.93.93 1.355.388.426.814.697 1.357.93.465.154 1.085.386 2.247.425.856.027 1.324.035 2.574.038H16.858c1.202-.038 1.822-.27 2.248-.425.543-.271.93-.503 1.356-.929.427-.387.698-.813.93-1.355.156-.464.388-1.084.427-2.245l.023-.67.007-.21c.026-.766.047-1.603.047-3.959v-2.228a72.308 72.308 0 0 0-.038-2.61c-.04-1.2-.272-1.82-.427-2.246-.271-.542-.504-.929-.93-1.354-.387-.388-.814-.659-1.356-.89-.465-.156-1.085-.388-2.248-.427-.29-.009-.532-.016-.776-.02l-.21-.005c-.459-.008-.965-.011-1.819-.013Zm-2.078 3.638c3.45 0 6.2 2.71 6.2 6.155 0 3.445-2.828 6.155-6.2 6.155-3.372 0-6.162-2.71-6.162-6.155a6.15 6.15 0 0 1 6.162-6.155Zm0 2.13c-2.21 0-4.03 1.819-4.03 4.025a4.025 4.025 0 0 0 4.03 4.026 4 4 0 0 0 4.03-4.026 4 4 0 0 0-4.03-4.026Zm6.472-3.833a1.433 1.433 0 1 1 .002 2.866 1.433 1.433 0 0 1-.002-2.866Z" fill="#fff"/></g><defs><clipPath id="a"><path fill="#fff" transform="translate(0 .906)" d="M0 0h24v24H0z"/></clipPath></defs></svg>