<svg width="24" height="25" fill="none" xmlns="http://www.w3.org/2000/svg"><g clip-path="url(#a)"><path d="M22.322.906H1.75C.778.906 0 1.68 0 2.648v20.516c0 .93.778 1.742 1.75 1.742h20.495c.972 0 1.75-.774 1.75-1.742V2.61c.077-.929-.7-1.703-1.673-1.703Zm-15.205 20.4h-3.54V9.886h3.54v11.42ZM5.327 8.3a2.045 2.045 0 0 1-2.06-2.052 2.07 2.07 0 0 1 2.06-2.051A2.07 2.07 0 0 1 7.39 6.248c0 1.123-.856 2.052-2.061 2.052Zm15.207 13.006h-3.54v-5.535c0-1.316-.038-3.058-1.866-3.058-1.867 0-2.139 1.47-2.139 2.942v5.651H9.45V9.886h3.461v1.588h.04c.505-.929 1.632-1.858 3.383-1.858 3.616 0 4.277 2.322 4.277 5.497v6.193h-.078Z" fill="#fff"/></g><defs><clipPath id="a"><path fill="#fff" transform="translate(0 .906)" d="M0 0h24v24H0z"/></clipPath></defs></svg>