<svg width="20" height="21" fill="none" xmlns="http://www.w3.org/2000/svg"><g clip-path="url(#a)"><path d="M15.22.813c.996 0 1.831.813 1.863 1.853v16.26c0 1.041-.835 1.887-1.863 1.887H4.78a1.876 1.876 0 0 1-1.863-1.887V2.666c0-1.04.835-1.853 1.83-1.853H15.22Zm-.032 1.105H4.748a.752.752 0 0 0-.74.748v16.26c0 .423.354.748.74.748h10.44a.752.752 0 0 0 .739-.748V2.666a.752.752 0 0 0-.739-.748Zm-1.703 7.577a1.11 1.11 0 0 1 1.093 1.106 1.09 1.09 0 0 1-1.093 1.106 1.09 1.09 0 0 1-1.092-1.106 1.09 1.09 0 0 1 1.092-1.106Z" fill="#45525B"/></g><defs><clipPath id="a"><path fill="#fff" transform="translate(0 .813)" d="M0 0h20v20H0z"/></clipPath></defs></svg>