<svg width="24" height="25" fill="none" xmlns="http://www.w3.org/2000/svg"><path d="M7.471 23.07c9.136 0 14.09-7.548 14.09-14.09 0-.154 0-.425-.038-.658A10.35 10.35 0 0 0 24 5.768a9.32 9.32 0 0 1-2.826.774 4.792 4.792 0 0 0 2.168-2.749c-.968.542-1.974.968-3.174 1.2-.93-.967-2.168-1.587-3.6-1.587A5.006 5.006 0 0 0 11.574 8.4c0 .387.039.774.116 1.161-3.987-.27-7.625-2.245-10.103-5.226C1.161 5.11.93 5.922.93 6.813c0 1.742.89 3.213 2.245 4.103a5.384 5.384 0 0 1-2.245-.62v.04c0 2.36 1.703 4.412 3.948 4.877-.425.116-.89.155-1.238.155-.31 0-.658-.04-.93-.117.659 1.975 2.478 3.407 4.646 3.446-1.703 1.316-3.832 2.129-6.116 2.129-.465.077-.852 0-1.239-.04 2.09 1.472 4.684 2.285 7.471 2.285Z" fill="#fff"/></svg>