<svg aria-hidden="true" style="position: absolute; width: 0; height: 0; overflow: hidden;" version="1.1" xmlns="http://www.w3.org/2000/svg" xmlns:xlink="http://www.w3.org/1999/xlink">
<defs>
<symbol id="arm-chair" viewBox="0 0 32 32">
<path fill="#fff" style="fill: var(--color1, #fff)" d="M25.069 20.032c0-1.613-1.323-2.913-2.961-2.913h-0.371l1.216-9.731v-0.052c0.107-1.924-0.581-3.747-1.956-5.151-1.375-1.405-3.173-2.185-5.131-2.185-0.013-0-0.027-0-0.042-0-2.001 0-3.806 0.838-5.084 2.182l-0.003 0.003c-1.375 1.405-2.063 3.227-1.957 5.151v0.053l1.217 9.729h-0.371c-1.64 0-2.961 1.301-2.961 2.913v2.237c0 0.781 0.317 1.509 0.847 2.029v6.765c0 0.52 0.423 0.936 0.951 0.936 0.004 0 0.008 0 0.012 0 0.518 0 0.938-0.419 0.94-0.936v-5.88h2.485v4.423c0 0.52 0.424 0.936 0.952 0.936 0.004 0 0.008 0 0.012 0 0.518 0 0.938-0.419 0.94-0.936v-4.423h4.389v4.423c0 0.52 0.423 0.936 0.952 0.936 0.004 0 0.008 0 0.012 0 0.518 0 0.938-0.419 0.94-0.936v-4.423h2.485v5.88c0 0.52 0.423 0.936 0.952 0.936 0.003 0 0.007 0 0.011 0 0.518 0 0.938-0.419 0.94-0.936v-6.714c0.529-0.52 0.847-1.248 0.847-2.029v-2.289h-0.264zM10.527 7.18c-0.053-1.404 0.476-2.757 1.428-3.797 0.962-0.995 2.309-1.613 3.801-1.613 0.002 0 0.005 0 0.007 0h-0c1.48 0 2.803 0.573 3.807 1.613 1.005 1.040 1.533 2.393 1.427 3.797l-1.215 9.887h-7.985l-1.269-9.887zM9.575 23.415c-0.007 0-0.014 0-0.022 0-0.207 0-0.4-0.058-0.564-0.159l0.005 0.003c-0.053-0.053-0.107-0.053-0.159-0.104-0.252-0.195-0.415-0.494-0.423-0.832l-0-0.001v-2.237c0-0.624 0.528-1.093 1.111-1.093h12.477c0.635 0 1.111 0.521 1.111 1.093v2.237c0 0.365-0.159 0.625-0.423 0.833-0.053 0.052-0.107 0.052-0.159 0.104-0.159 0.098-0.352 0.156-0.559 0.156-0.008 0-0.016-0-0.023-0l0.001 0h-12.373z"></path>
</symbol>
<symbol id="arrow-right" viewBox="0 0 30 32">
<path fill="#45525b" style="fill: var(--color2, #45525b)" d="M29.65 14.45l-5.519-5.664c-0.367-0.35-0.864-0.565-1.412-0.565-0.492 0-0.943 0.173-1.296 0.462l0.004-0.003c-0.359 0.346-0.582 0.831-0.582 1.368 0 0.482 0.18 0.922 0.476 1.257l-0.002-0.002 3.139 3.252h-22.511c-1.082 0-1.947 0.838-1.947 1.89 0 1.048 0.866 1.886 1.947 1.886h22.618l-3.138 3.252c-0.757 0.734-0.649 1.89 0.108 2.621 0.325 0.315 0.866 0.526 1.298 0.526 0.541 0 0.975-0.21 1.406-0.524l5.519-5.664c0.975-1.259 0.975-2.936-0.107-4.091z"></path>
</symbol>
<symbol id="arrow" viewBox="0 0 35 32">
<path d="M15.913 30.633c0.395 0.394 0.94 0.638 1.542 0.638s1.147-0.244 1.542-0.638l13.886-13.884c0.395-0.395 0.639-0.941 0.639-1.543 0-1.205-0.977-2.183-2.183-2.183-0.603 0-1.148 0.244-1.543 0.639l-12.342 12.345-12.342-12.345c-0.395-0.395-0.941-0.639-1.543-0.639-1.205 0-2.183 0.977-2.183 2.183 0 0.603 0.244 1.148 0.639 1.543l13.885 13.885zM15.273 0v29.091h4.364v-29.091h-4.364z"></path>
</symbol>
<symbol id="bath" viewBox="0 0 30 32">
<path fill="#45525b" style="fill: var(--color2, #45525b)" d="M29.586 15.119h-23.747v-9.646c-0-0.009-0-0.020-0-0.031 0-0.623 0.505-1.128 1.128-1.128 0.003 0 0.007 0 0.010 0h3.809v1.458c-1.064 0.162-1.871 1.066-1.88 2.16v2.211c0 0.503 0.396 0.905 0.891 0.905h3.512c0.492-0.003 0.89-0.402 0.89-0.894 0-0.003-0-0.006-0-0.010v0.001-2.211c0-1.006-0.692-1.859-1.632-2.11v-2.412c0-0.503-0.396-0.904-0.891-0.904h-4.699c-1.583 0-2.869 1.306-2.869 2.914v9.649h-3.217c-0.492 0.003-0.89 0.402-0.89 0.894 0 0.004 0 0.008 0 0.011v-0.001c0 0.503 0.396 0.904 0.89 0.904h1.189v4.020c0 2.964 2.176 5.426 4.997 5.829l-1.088 2.462c-0.049 0.105-0.077 0.229-0.077 0.358 0 0.355 0.212 0.659 0.517 0.794l0.006 0.002c0.1 0.054 0.218 0.090 0.343 0.1l0.003 0c0.348-0.001 0.648-0.204 0.79-0.498l0.002-0.005 1.385-3.115h13.952l1.385 3.115c0.148 0.352 0.445 0.503 0.791 0.503 0.099 0 0.247 0 0.346-0.101 0.311-0.137 0.524-0.442 0.524-0.797 0-0.13-0.028-0.253-0.079-0.363l0.002 0.005-1.237-2.764c2.217-0.899 3.753-3.033 3.759-5.526v-4.021h1.189c0.492-0.003 0.89-0.402 0.89-0.894 0-0.003-0-0.006-0-0.010v0.001c-0.017-0.475-0.406-0.853-0.883-0.853-0.002 0-0.005 0-0.007 0h0zM12.418 9.291h-1.78v-1.356c0-0.251 0.198-0.453 0.445-0.453h0.89c0.247 0 0.445 0.201 0.445 0.453v1.356zM26.667 20.898c0 2.261-1.83 4.171-4.107 4.171h-14.644c-2.226 0-4.107-1.859-4.107-4.171v-4.020h22.857v4.020z"></path>
</symbol>
<symbol id="bed" viewBox="0 0 30 32">
<path fill="#45525b" style="fill: var(--color2, #45525b)" d="M28.425 21.474s0-0.050 0 0v-0.050l-4.13-9.152v-8.015c0-1.632-1.31-3.017-2.962-3.017h-12.238c-1.603 0-2.964 1.335-2.964 3.017v8.015l-4.13 9.152c-0.052 0.101-0.086 0.219-0.096 0.344l-0 0.003v9.053c0 0.495 0.389 0.89 0.875 0.89s0.875-0.396 0.875-0.89v-2.621h23.168v2.621c0 0.495 0.39 0.89 0.875 0.89 0.486 0 0.875-0.396 0.875-0.89v-9.054c-0.098-0.098-0.098-0.198-0.146-0.296zM7.54 13.31h15.299l3.45 7.619h-22.15l3.401-7.619zM7.88 4.256c-0-0.006-0-0.014-0-0.021 0-0.698 0.566-1.264 1.263-1.265h12.191c0 0 0 0 0 0 0.698 0 1.265 0.566 1.265 1.265 0 0.008-0 0.015-0 0.022v-0.001 7.322h-14.72v-7.322zM3.654 26.47v-3.81h23.168v3.81h-23.168z"></path>
</symbol>
<symbol id="building" viewBox="0 0 32 32">
<path fill="#fff" style="fill: var(--color1, #fff)" d="M31.844 13.373l0.052-0.051s0-0.051 0.052-0.103c0-0.051 0-0.051 0.052-0.101v-0.307c-1.093-6.171-7.96-10.812-16.027-10.812-8.064 0-14.933 4.64-15.973 10.761v0.357c0 0.051 0 0.051 0.052 0.101 0 0.052 0 0.052 0.052 0.103 0 0.051 0.053 0.051 0.053 0.101l0.051 0.052 0.053 0.051 0.051 0.051 0.053 0.051 0.051 0.052s0.053 0.051 0.104 0.051c0 0 0.053 0.051 0.104 0.051h3.539v14.332h-0.832c-0.004-0-0.009-0-0.013-0-0.508 0-0.92 0.41-0.924 0.917v0c0 0.511 0.416 0.919 0.937 0.919h8.845c0.52 0 0.936-0.408 0.936-0.919-0.004-0.507-0.416-0.917-0.924-0.917-0.004 0-0.008 0-0.013 0h-0.781v-14.28h9.263v14.331h-0.885c-0.004-0-0.008-0-0.012-0-0.508 0-0.92 0.41-0.924 0.917v0c0 0.511 0.416 0.919 0.936 0.919h8.845c0.52 0 0.937-0.408 0.937-0.919-0.004-0.507-0.416-0.917-0.924-0.917-0.005 0-0.009 0-0.014 0h-0.675v-14.332h3.487c0.052 0 0.052 0 0.104-0.051 0.052 0 0.052-0.051 0.104-0.051l0.052-0.051 0.052-0.052 0.104-0.101v-0.153zM15.973 3.787c6.712 0 12.487 3.52 13.944 8.313h-27.888c1.457-4.847 7.232-8.315 13.944-8.315zM9.573 28.165h-3.643v-14.333h3.643v14.332zM26.12 28.165h-3.644v-14.333h3.643v14.332z"></path>
</symbol>
<symbol id="facebook" viewBox="0 0 31 32">
<path fill="#fff" style="fill: var(--color1, #fff)" d="M28.986 1.16h-27.251c-0.992 0-1.734 0.794-1.734 1.734v27.251c0 0.992 0.794 1.734 1.734 1.734h14.666v-11.941h-3.964v-4.608h3.964v-3.418c0-3.965 2.378-6.144 5.946-6.144 1.19 0 2.378 0.049 3.567 0.197v4.113h-2.378c-1.882 0-2.278 0.892-2.278 2.23v2.924h4.508l-0.644 4.658h-3.964v11.791h7.828c0.991 0 1.734-0.742 1.734-1.733v-27.055c-0.050-0.991-0.842-1.734-1.734-1.734z"></path>
</symbol>
<symbol id="hero_logo" viewBox="0 0 40 32">
<path fill="#45525b" style="fill: var(--color2, #45525b)" d="M9.761 23.383c0.956 0 1.718 0.239 2.288 0.719s0.883 1.126 0.942 1.939h-1.941c-0.029-0.32-0.162-0.574-0.398-0.762s-0.554-0.283-0.949-0.283c-0.367 0-0.649 0.067-0.848 0.203s-0.297 0.324-0.297 0.566c0 0.271 0.135 0.477 0.405 0.618s0.691 0.283 1.26 0.428c0.579 0.145 1.057 0.295 1.434 0.45s0.702 0.394 0.977 0.719c0.275 0.324 0.418 0.753 0.427 1.285 0 0.464-0.128 0.881-0.383 1.249s-0.623 0.656-1.101 0.864c-0.478 0.208-1.035 0.312-1.672 0.312-0.657 0-1.246-0.119-1.767-0.356s-0.935-0.559-1.239-0.966c-0.304-0.407-0.47-0.857-0.5-1.351h2.042c0.039 0.31 0.19 0.567 0.456 0.77s0.596 0.305 0.992 0.305c0.386 0 0.688-0.077 0.905-0.232s0.326-0.353 0.326-0.596c0-0.261-0.133-0.458-0.398-0.588s-0.688-0.273-1.267-0.428c-0.599-0.145-1.088-0.295-1.47-0.451-0.392-0.162-0.722-0.404-0.983-0.708l-0.003-0.003c-0.275-0.32-0.413-0.75-0.413-1.293 0-0.445 0.128-0.851 0.384-1.219s0.623-0.659 1.101-0.872c0.478-0.213 1.040-0.319 1.687-0.319zM21.752 23.383c0.598 0 1.122 0.121 1.571 0.363s0.809 0.547 1.079 0.915v-1.147h2.042v8.046h-2.042v-1.177c-0.26 0.378-0.62 0.69-1.079 0.937s-0.987 0.371-1.586 0.371c-0.676 0-1.291-0.174-1.846-0.523s-0.994-0.839-1.318-1.474c-0.323-0.634-0.485-1.363-0.485-2.186 0-0.813 0.161-1.534 0.485-2.164s0.763-1.113 1.318-1.452c0.555-0.339 1.175-0.508 1.861-0.508zM35.814 23.383c0.762 0 1.446 0.164 2.049 0.493 0.598 0.327 1.077 0.805 1.396 1.384l0.009 0.018c0.333 0.605 0.499 1.299 0.499 2.084 0 0.29-0.020 0.551-0.058 0.784h-5.865c0.048 0.581 0.251 1.036 0.608 1.365s0.797 0.493 1.318 0.493c0.753 0 1.289-0.324 1.607-0.972h2.187c-0.232 0.774-0.676 1.411-1.333 1.91s-1.463 0.747-2.418 0.747c-0.773 0-1.465-0.172-2.078-0.515s-1.091-0.83-1.434-1.46c-0.342-0.629-0.514-1.355-0.514-2.179 0-0.832 0.169-1.563 0.507-2.193 0.338-0.629 0.811-1.113 1.419-1.452s1.308-0.508 2.1-0.508zM5.865 21.407v1.656h-3.838v2.541h3.404v1.612h-3.404v2.686h3.838v1.656h-5.865v-10.151h5.865zM16.22 21.524v1.99h1.796v1.67h-1.796v3.893c0 0.27 0.065 0.467 0.195 0.588s0.35 0.181 0.659 0.181h0.941v1.713h-1.275c-1.709 0-2.564-0.833-2.564-2.498v-3.877h-0.956v-1.67h0.956v-1.99h2.043zM29.92 21.524v1.99h1.796v1.67h-1.796v3.893c0 0.27 0.065 0.467 0.195 0.588s0.35 0.181 0.659 0.181h0.941v1.713h-1.275c-1.709 0-2.563-0.833-2.563-2.498v-3.877h-0.956v-1.67h0.956v-1.99h2.042zM22.273 25.169c-0.377 0-0.724 0.091-1.042 0.276s-0.577 0.453-0.775 0.806c-0.198 0.354-0.297 0.772-0.297 1.256s0.099 0.907 0.297 1.271c0.198 0.363 0.459 0.641 0.782 0.835 0.294 0.182 0.65 0.29 1.032 0.29 0.001 0 0.002 0 0.004 0h-0c0.003 0 0.006 0 0.008 0 0.387 0 0.749-0.105 1.059-0.288l-0.010 0.005c0.327-0.189 0.588-0.46 0.782-0.813s0.289-0.777 0.289-1.271-0.096-0.917-0.289-1.271c-0.194-0.354-0.455-0.624-0.782-0.813-0.301-0.178-0.663-0.283-1.049-0.283-0.003 0-0.006 0-0.009 0h0zM35.755 25.053c-0.502 0-0.925 0.152-1.267 0.457s-0.553 0.729-0.63 1.271h3.809c-0.010-0.523-0.198-0.941-0.565-1.256s-0.816-0.472-1.346-0.472z"></path>
<path fill="#ff8a63" style="fill: var(--color3, #ff8a63)" d="M21.269 0l7.224 7.261v10.197h-1.676v-9.502l-6.734-6.766 1.186-1.19zM16.53 4.759l5.255 5.283v7.415h-10.51v-7.415l5.255-5.283zM18.899 2.379l6.241 6.272v8.806h-1.676v-8.111l-5.748-5.777 1.183-1.19z"></path>
</symbol>
<symbol id="location" viewBox="0 0 32 32">
<path fill="#fff" style="fill: var(--color1, #fff)" d="M4.935 19.441c0.467-0.209 0.987 0 1.195 0.473 0.051 0.11 0.081 0.239 0.081 0.375 0 0.371-0.223 0.69-0.542 0.831l-0.006 0.002c-2.389 1.052-3.792 2.365-3.792 3.627 0 2.573 5.765 5.464 14.129 5.464s14.181-2.889 14.129-5.464c0-1.261-1.351-2.575-3.688-3.573-0.467-0.211-0.675-0.736-0.467-1.209 0.137-0.327 0.454-0.553 0.824-0.553 0.134 0 0.262 0.030 0.376 0.083l-0.005-0.002c3.116 1.365 4.831 3.205 4.831 5.252 0 4.103-6.857 7.253-16 7.253s-16-3.1-16-7.251c0-2.049 1.767-3.941 4.935-5.307zM16 0c5.767 0 10.441 4.729 10.441 10.561 0 4.361-5.453 11.192-8.727 14.871-0.416 0.525-1.040 0.788-1.715 0.788-0.676 0-1.299-0.315-1.715-0.788-3.272-3.679-8.725-10.509-8.725-14.872-0.001-5.831 4.673-10.56 10.44-10.56zM16 1.84c-4.727 0-8.624 3.888-8.624 8.721 0 2.68 3.117 7.777 8.26 13.609 0.104 0.157 0.312 0.157 0.364 0.157s0.208 0 0.364-0.157c5.195-5.832 8.26-10.929 8.26-13.609 0-4.833-3.896-8.723-8.624-8.723z"></path>
</symbol>
<symbol id="logo" viewBox="0 0 88 32">
<path fill="#45525b" style="fill: var(--color2, #45525b)" d="M49.81 21.26c1.223 0 2.199 0.31 2.928 0.929s1.131 1.456 1.206 2.506h-2.485c-0.036-0.413-0.207-0.741-0.509-0.985s-0.707-0.366-1.214-0.366c-0.47 0-0.83 0.087-1.085 0.262-0.231 0.153-0.381 0.411-0.381 0.704 0 0.010 0 0.020 0.001 0.030l-0-0.001c0 0.35 0.174 0.617 0.519 0.798 0.347 0.182 0.885 0.366 1.614 0.553 0.742 0.188 1.353 0.382 1.835 0.583 0.5 0.212 0.919 0.528 1.246 0.923l0.004 0.005c0.352 0.419 0.535 0.973 0.547 1.661 0 0.011 0 0.023 0 0.036 0 0.591-0.184 1.138-0.497 1.589l0.006-0.009c-0.327 0.476-0.797 0.848-1.409 1.117s-1.325 0.404-2.141 0.404c-0.841 0-1.594-0.154-2.261-0.46s-1.196-0.722-1.585-1.248c-0.367-0.483-0.602-1.084-0.64-1.738l-0-0.009h2.614c0.048 0.401 0.244 0.733 0.584 0.995s0.763 0.394 1.27 0.394c0.493 0 0.88-0.1 1.158-0.3s0.418-0.457 0.418-0.77c0-0.337-0.17-0.592-0.51-0.761s-0.88-0.353-1.622-0.553c-0.766-0.188-1.393-0.382-1.881-0.582-0.503-0.21-0.925-0.523-1.257-0.915l-0.004-0.005c-0.352-0.413-0.528-0.97-0.528-1.672 0-0.575 0.163-1.101 0.49-1.577s0.797-0.851 1.41-1.127c0.611-0.275 1.33-0.413 2.159-0.413zM65.158 21.26c0.765 0 1.436 0.157 2.011 0.469 0.575 0.314 1.035 0.707 1.381 1.183v-1.483h2.614v10.403h-2.615v-1.522c-0.334 0.489-0.794 0.893-1.381 1.211-0.586 0.32-1.263 0.48-2.030 0.48-0.865 0-1.652-0.225-2.363-0.676-0.711-0.45-1.273-1.085-1.687-1.905s-0.621-1.762-0.621-2.826c0-1.052 0.208-1.984 0.621-2.798s0.976-1.438 1.687-1.877 1.504-0.657 2.382-0.657zM83.156 21.26c0.976 0 1.851 0.212 2.623 0.637 0.766 0.424 1.379 1.042 1.786 1.789l0.012 0.023c0.426 0.783 0.639 1.68 0.639 2.695 0 0.375-0.025 0.713-0.073 1.014h-7.507c0.061 0.752 0.32 1.34 0.778 1.764 0.457 0.426 1.019 0.638 1.686 0.638 0.963 0 1.65-0.419 2.058-1.258h2.799c-0.3 1.013-0.899 1.859-1.694 2.461l-0.012 0.009c-0.84 0.645-1.872 0.967-3.096 0.967-0.988 0-1.874-0.222-2.659-0.666-0.783-0.447-1.408-1.090-1.823-1.862l-0.012-0.025c-0.438-0.814-0.657-1.753-0.657-2.818 0-1.075 0.216-2.020 0.649-2.835 0.432-0.813 1.038-1.438 1.816-1.877s1.675-0.657 2.688-0.657zM44.823 18.705v2.141h-4.912v3.287h4.357v2.084h-4.357v3.472h4.912v2.141h-7.507v-13.126h7.507zM58.077 18.856v2.573h2.298v2.159h-2.298v5.034c0 0.349 0.083 0.603 0.25 0.76 0.167 0.156 0.447 0.233 0.843 0.233h1.205v2.217h-1.631c-2.188 0-3.281-1.077-3.281-3.229v-5.014h-1.224v-2.16h1.224v-2.573h2.614zM75.613 18.856v2.573h2.298v2.159h-2.298v5.034c0 0.349 0.083 0.603 0.25 0.76 0.167 0.156 0.448 0.233 0.844 0.233h1.205v2.217h-1.632c-2.188 0-3.281-1.077-3.281-3.229v-5.014h-1.223v-2.16h1.223v-2.573h2.615zM65.825 23.569c-0.483 0-0.926 0.119-1.335 0.357s-0.738 0.585-0.992 1.041c-0.253 0.458-0.38 0.998-0.38 1.624s0.126 1.174 0.381 1.643c0.253 0.47 0.586 0.829 1.001 1.080s0.856 0.375 1.325 0.375c0.482 0 0.933-0.121 1.353-0.366 0.426-0.253 0.767-0.61 0.995-1.037l0.007-0.014c0.246-0.457 0.37-1.005 0.37-1.643s-0.124-1.187-0.37-1.643c-0.234-0.441-0.575-0.798-0.989-1.045l-0.012-0.007c-0.384-0.229-0.847-0.365-1.342-0.365-0.004 0-0.008 0-0.012 0h0.001zM83.082 23.419c-0.643 0-1.184 0.197-1.623 0.592s-0.707 0.943-0.806 1.643h4.875c-0.013-0.675-0.253-1.218-0.724-1.624-0.469-0.407-1.044-0.611-1.723-0.611z"></path>
<path fill="#ff8a63" style="fill: var(--color3, #ff8a63)" d="M18.040 0l13.039 13.239v18.593h-3.025v-17.325l-12.155-12.337 2.141-2.169zM9.486 8.677l9.485 9.633v13.521h-18.971v-13.522l9.486-9.633zM13.763 4.339l11.267 11.435v16.056h-3.025v-14.788l-10.377-10.534 2.136-2.169z"></path>
</symbol>
<symbol id="Rectangle-1" viewBox="0 0 32 32">
<path stroke-linejoin="miter" stroke-linecap="butt" stroke-miterlimit="4" stroke-width="1" d="M16 0.5c8.56 0 15.5 6.94 15.5 15.5s-6.94 15.5-15.5 15.5c-8.56 0-15.5-6.94-15.5-15.5s6.94-15.5 15.5-15.5z"></path>
</symbol>
<symbol id="room" viewBox="0 0 30 32">
<path fill="#45525b" style="fill: var(--color2, #45525b)" d="M23.192 1.239c1.518 0 2.79 1.239 2.839 2.824v24.777c0 1.586-1.272 2.875-2.839 2.875h-15.909c-1.57-0.011-2.839-1.287-2.839-2.859 0-0.006 0-0.012 0-0.018v0.001-24.777c0-1.585 1.272-2.824 2.789-2.824h15.959zM23.144 2.923h-15.909c-0.623 0.010-1.124 0.516-1.128 1.139v24.777c0 0.645 0.539 1.14 1.128 1.14h15.909c0.622-0.011 1.123-0.516 1.126-1.139v-24.777c-0.003-0.623-0.504-1.129-1.125-1.14h-0.001zM20.549 14.469c0.921 0.015 1.662 0.763 1.666 1.685v0c0 0.007 0 0.016 0 0.024 0 0.917-0.744 1.661-1.661 1.661-0.002 0-0.003 0-0.005 0h0c-0.001 0-0.002 0-0.003 0-0.917 0-1.661-0.744-1.661-1.661 0-0.009 0-0.017 0-0.026v0.001c-0-0.007-0-0.016-0-0.024 0-0.917 0.744-1.661 1.661-1.661 0.001 0 0.002 0 0.003 0h-0z"></path>
</symbol>
<symbol id="star-empty" viewBox="0 0 30 32">
<path fill="#52503b" style="fill: var(--color4, #52503b)" d="M30.201 12.13c-0.202-0.606-0.707-1.061-1.314-1.162l-8.438-1.314-3.789-7.983c-0.271-0.572-0.843-0.96-1.506-0.96-0.004 0-0.007 0-0.011 0h0.001c-0.657 0-1.213 0.354-1.465 0.96l-3.789 8.034-8.488 1.364c-0.606 0.101-1.112 0.556-1.314 1.162s-0.051 1.314 0.404 1.768l6.114 6.265-1.415 8.741c-0.101 0.657 0.152 1.314 0.707 1.718 0.303 0.202 0.606 0.303 0.909 0.303 0.253 0 0.556-0.051 0.758-0.202l7.579-4.143 7.528 4.093c0.556 0.303 1.213 0.253 1.718-0.101 0.556-0.404 0.808-1.061 0.707-1.718l-1.415-8.792 6.114-6.265c0.455-0.455 0.606-1.162 0.404-1.768zM29.039 13.191l-6.063 6.265c-0.202 0.202-0.303 0.556-0.253 0.859l1.415 8.792c0.051 0.354-0.101 0.606-0.303 0.707-0.101 0.051-0.354 0.202-0.657 0.051l-7.579-4.093c-0.132-0.072-0.288-0.114-0.455-0.114s-0.323 0.042-0.46 0.116l0.005-0.003-7.579 4.143c-0.303 0.152-0.556 0.051-0.657-0.051-0.188-0.145-0.308-0.371-0.308-0.624 0-0.029 0.002-0.058 0.005-0.087l-0 0.004 1.465-8.741c0.008-0.050 0.013-0.107 0.013-0.165 0-0.267-0.101-0.511-0.267-0.694l0.001 0.001-6.114-6.265c-0.142-0.141-0.23-0.336-0.23-0.551 0-0.074 0.010-0.145 0.029-0.212l-0.001 0.005c0.101-0.253 0.253-0.404 0.505-0.455l8.488-1.364c0.303-0.051 0.606-0.253 0.707-0.556l3.789-8.034c0.152-0.253 0.354-0.404 0.606-0.404s0.455 0.152 0.556 0.404l3.789 8.034c0.152 0.303 0.404 0.505 0.707 0.556l8.438 1.314c0.253 0.051 0.455 0.202 0.505 0.455 0.152 0.152 0.152 0.505-0.101 0.707z"></path>
</symbol>
<symbol id="star-fill" viewBox="0 0 30 32">
<path fill="#52503b" style="fill: var(--color4, #52503b)" d="M29.63 11.64l-9.465-1.465-4.288-8.992c-0.13-0.28-0.409-0.471-0.733-0.471s-0.603 0.191-0.731 0.466l-0.002 0.005-4.288 9.046-9.413 1.41c-0.68 0.104-0.941 0.994-0.418 1.465l6.85 7.059-1.62 9.885c-0.104 0.679 0.574 1.255 1.203 0.837l8.524-4.655 8.472 4.655c0.576 0.313 1.307-0.211 1.15-0.837l-1.62-9.885 6.85-7.059c0.418-0.472 0.209-1.361-0.472-1.465z"></path>
</symbol>
<symbol id="twitter" viewBox="0 0 31 32">
<path fill="#fff" style="fill: var(--color1, #fff)" d="M9.563 29.53c11.694 0 18.035-9.661 18.035-18.035 0-0.197 0-0.544-0.049-0.842 1.243-0.909 2.294-1.991 3.141-3.224l0.029-0.045c-1.054 0.49-2.277 0.84-3.563 0.986l-0.055 0.005c1.322-0.783 2.309-2.012 2.763-3.475l0.012-0.043c-1.239 0.694-2.527 1.239-4.063 1.536-1.19-1.238-2.775-2.031-4.608-2.031-3.527 0.009-6.384 2.865-6.392 6.391v0.001c0 0.495 0.050 0.991 0.148 1.486-5.103-0.346-9.76-2.874-12.932-6.689-0.545 0.992-0.841 2.031-0.841 3.172 0 2.23 1.139 4.113 2.874 5.252-1.060-0.056-2.041-0.343-2.91-0.812l0.037 0.018v0.051c0 3.021 2.18 5.647 5.053 6.243-0.544 0.148-1.139 0.198-1.585 0.198-0.397 0-0.842-0.051-1.19-0.15 0.844 2.528 3.172 4.361 5.947 4.411-2.18 1.684-4.905 2.725-7.828 2.725-0.595 0.099-1.091 0-1.586-0.051 2.675 1.884 5.996 2.925 9.563 2.925z"></path>
</symbol>
<symbol id="facebook1" viewBox="0 0 32 32">
<path fill="#afb1b8" style="fill: var(--color5, #afb1b8)" d="M21.328 5.312h2.923v-5.088c-1.232-0.143-2.66-0.224-4.108-0.224-0.052 0-0.104 0-0.156 0l0.008-0c-4.213 0-7.099 2.65-7.099 7.52v4.48h-4.646v5.688h4.646v14.312h5.699v-14.31h4.459l0.707-5.688h-5.168v-3.922c0-1.643 0.443-2.768 2.734-2.768z"></path>
</symbol>
<symbol id="instagram" viewBox="0 0 32 32">
<path fill="#afb1b8" style="fill: var(--color5, #afb1b8)" d="M31.968 9.408c-0.074-1.701-0.349-2.869-0.742-3.882-0.424-1.111-1.054-2.059-1.85-2.837l-0.001-0.001c-0.78-0.792-1.724-1.419-2.778-1.827l-0.054-0.018c-1.019-0.394-2.181-0.667-3.882-0.742-1.712-0.082-2.256-0.101-6.602-0.101-4.344 0-4.888 0.019-6.595 0.094-1.699 0.074-2.869 0.349-3.88 0.742-1.112 0.424-2.060 1.054-2.839 1.85l-0.001 0.001c-0.791 0.78-1.418 1.724-1.825 2.778l-0.018 0.054c-0.395 1.019-0.669 2.181-0.744 3.882-0.082 1.712-0.101 2.256-0.101 6.602 0 4.344 0.019 4.888 0.094 6.595 0.075 1.701 0.35 2.869 0.744 3.882 0.426 1.11 1.055 2.057 1.849 2.837l0.001 0.001c0.8 0.813 1.77 1.443 2.832 1.843 1.019 0.395 2.182 0.67 3.882 0.744 1.707 0.075 2.251 0.094 6.595 0.094 4.346 0 4.89-0.019 6.595-0.094 1.701-0.074 2.869-0.349 3.882-0.742 2.157-0.85 3.833-2.526 4.664-4.628l0.019-0.055c0.394-1.019 0.669-2.182 0.744-3.882 0.075-1.707 0.093-2.251 0.093-6.595s-0.006-4.888-0.080-6.595zM29.088 22.474c-0.070 1.563-0.333 2.406-0.55 2.97-0.552 1.399-1.64 2.486-3.004 3.024l-0.036 0.012c-0.56 0.219-1.411 0.482-2.968 0.55-1.688 0.075-2.194 0.094-6.464 0.094-4.269 0-4.782-0.019-6.464-0.094-1.563-0.069-2.406-0.331-2.97-0.55-0.721-0.269-1.334-0.676-1.836-1.192l-0.001-0.001c-0.517-0.503-0.924-1.117-1.184-1.803l-0.011-0.034c-0.218-0.563-0.48-1.413-0.549-2.97-0.075-1.688-0.094-2.195-0.094-6.464 0-4.27 0.019-4.784 0.094-6.464 0.069-1.563 0.331-2.406 0.549-2.97 0.269-0.722 0.678-1.337 1.198-1.837l0.002-0.002c0.504-0.517 1.119-0.923 1.806-1.182l0.034-0.011c0.56-0.219 1.411-0.48 2.968-0.55 1.688-0.074 2.195-0.093 6.464-0.093 4.275 0 4.782 0.019 6.464 0.093 1.563 0.069 2.406 0.331 2.97 0.55 0.693 0.256 1.325 0.662 1.837 1.194 0.531 0.52 0.938 1.144 1.195 1.84 0.218 0.56 0.48 1.411 0.549 2.968 0.075 1.688 0.094 2.194 0.094 6.464 0 4.269-0.019 4.768-0.094 6.458z"></path>
<path fill="#afb1b8" style="fill: var(--color5, #afb1b8)" d="M16.059 7.782c-4.539 0.002-8.218 3.682-8.219 8.221v0c0 0 0 0.001 0 0.002 0 4.541 3.681 8.222 8.222 8.222s8.222-3.681 8.222-8.222c0-4.541-3.681-8.222-8.222-8.222-0.001 0-0.001 0-0.002 0h0zM16.059 21.334c-2.945-0-5.332-2.388-5.332-5.333s2.388-5.333 5.333-5.333c0 0 0.001 0 0.001 0h-0c2.946 0 5.334 2.388 5.334 5.334s-2.388 5.334-5.334 5.334v0zM26.525 7.458c0 1.060-0.86 1.92-1.92 1.92s-1.92-0.86-1.92-1.92v0c0-1.060 0.86-1.92 1.92-1.92s1.92 0.86 1.92 1.92v0z"></path>
</symbol>
<symbol id="linkedin" viewBox="0 0 32 32">
<path fill="#afb1b8" style="fill: var(--color5, #afb1b8)" d="M31.992 32h0.008v-11.738c0-5.741-1.237-10.163-7.947-10.163-3.227 0-5.392 1.77-6.277 3.45h-0.093v-2.914h-6.365v21.363h6.627v-10.578c0-2.786 0.528-5.48 3.978-5.48 3.398 0 3.448 3.179 3.448 5.658v10.402h6.621zM0.528 10.635h6.635v21.365h-6.635v-21.365zM3.843 0c-2.123 0-3.843 1.721-3.843 3.843v0c0 2.12 1.722 3.878 3.843 3.878 2.12 0 3.842-1.757 3.842-3.878s-1.72-3.841-3.841-3.843h-0z"></path>
</symbol>
<symbol id="twitter1" viewBox="0 0 32 32">
<path fill="#afb1b8" style="fill: var(--color5, #afb1b8)" d="M32 6.078c-1.1 0.493-2.376 0.857-3.713 1.028l-0.068 0.007c1.36-0.817 2.382-2.078 2.873-3.579l0.013-0.046c-1.197 0.722-2.591 1.273-4.076 1.573l-0.084 0.014c-1.2-1.279-2.9-2.076-4.787-2.076-3.622 0-6.558 2.936-6.558 6.558 0 0.001 0 0.003 0 0.004v-0c0 0.52 0.043 1.021 0.152 1.496-5.454-0.266-10.28-2.88-13.522-6.861-0.564 0.949-0.899 2.092-0.902 3.313v0.001c0 2.272 1.171 4.286 2.914 5.451-1.091-0.030-2.107-0.325-2.994-0.823l0.033 0.017v0.072c0.003 3.165 2.236 5.807 5.213 6.44l0.043 0.008c-0.499 0.136-1.071 0.215-1.662 0.215-0.020 0-0.041-0-0.061-0l0.003 0c-0.419 0-0.843-0.024-1.242-0.112 0.85 2.598 3.261 4.509 6.13 4.57-2.215 1.746-5.045 2.8-8.122 2.8-0.004 0-0.008 0-0.013 0h0.001c-0.018 0-0.040 0-0.062 0-0.531 0-1.055-0.034-1.569-0.099l0.061 0.006c2.826 1.846 6.287 2.944 10.004 2.944 0.021 0 0.042-0 0.063-0h-0.003c12.072 0 18.672-10 18.672-18.669 0-0.288-0.010-0.57-0.024-0.848 1.299-0.936 2.39-2.064 3.258-3.355l0.030-0.047z"></path>
</symbol>
<symbol id="arrow-right2" viewBox="0 0 32 32">
<path d="M19.414 27.414l10-10c0.781-0.781 0.781-2.047 0-2.828l-10-10c-0.781-0.781-2.047-0.781-2.828 0s-0.781 2.047 0 2.828l6.586 6.586h-19.172c-1.105 0-2 0.895-2 2s0.895 2 2 2h19.172l-6.586 6.586c-0.39 0.39-0.586 0.902-0.586 1.414s0.195 1.024 0.586 1.414c0.781 0.781 2.047 0.781 2.828 0z"></path>
</symbol>
<symbol id="arrow-down2" viewBox="0 0 32 32">
<path d="M27.414 19.414l-10 10c-0.781 0.781-2.047 0.781-2.828 0l-10-10c-0.781-0.781-0.781-2.047 0-2.828s2.047-0.781 2.828 0l6.586 6.586v-19.172c0-1.105 0.895-2 2-2s2 0.895 2 2v19.172l6.586-6.586c0.39-0.39 0.902-0.586 1.414-0.586s1.024 0.195 1.414 0.586c0.781 0.781 0.781 2.047 0 2.828z"></path>
</symbol>
<symbol id="arrow-left2" viewBox="0 0 32 32">
<path d="M12.586 27.414l-10-10c-0.781-0.781-0.781-2.047 0-2.828l10-10c0.781-0.781 2.047-0.781 2.828 0s0.781 2.047 0 2.828l-6.586 6.586h19.172c1.105 0 2 0.895 2 2s-0.895 2-2 2h-19.172l6.586 6.586c0.39 0.39 0.586 0.902 0.586 1.414s-0.195 1.024-0.586 1.414c-0.781 0.781-2.047 0.781-2.828 0z"></path>
</symbol>
</defs>
</svg>
